<svg xmlns="http://www.w3.org/2000/svg" version="1.1" xmlns:xlink="http://www.w3.org/1999/xlink" xmlns:svgjs="http://svgjs.dev/svgjs" width="1000" height="1000" viewBox="0 0 1000 1000"><rect width="1000" height="1000" fill="#ffffff"></rect><g transform="matrix(0.7,0,0,0.7,149.57575757575756,282.1265587044535)"><svg viewBox="0 0 396 247" data-background-color="#dedede" preserveAspectRatio="xMidYMid meet" height="623" width="1000" xmlns="http://www.w3.org/2000/svg" xmlns:xlink="http://www.w3.org/1999/xlink"><g id="tight-bounds" transform="matrix(1,0,0,1,0.2400000000000091,-0.09999999999999432)"><svg viewBox="0 0 395.52 247.2" height="247.2" width="395.52"><g><svg></svg></g><g><svg viewBox="0 0 395.52 247.2" height="247.2" width="395.52"><g transform="matrix(1,0,0,1,107.51985257985257,37.08)"><svg viewBox="0 0 180.48029484029485 173.04" height="173.04" width="180.48029484029485"><g><svg viewBox="0 0 180.48029484029485 173.04" height="173.04" width="180.48029484029485"><g><svg viewBox="0 0 180.48029484029485 173.04" height="173.04" width="180.48029484029485"><g><svg viewBox="0 0 180.48029484029485 173.04" height="173.04" width="180.48029484029485"><g id="textblocktransform"><svg viewBox="0 0 180.48029484029485 173.04" height="173.04" width="180.48029484029485" id="textblock"><g><svg viewBox="0 0 180.48029484029485 173.04" height="173.04" width="180.48029484029485"><g transform="matrix(1,0,0,1,0,0)"><svg width="180.48029484029485" viewBox="0.15000000000000036 -37.7 43.45 41.7" height="173.04" data-palette-color="#374151"><path d="M8.2-33.7L8.2 0 4.15 0 4.15-33.7 8.2-33.7ZM26.05-16.65L39.6 0 34.35 0 21.05-16.65 33.9-33.7 38.9-33.7 26.05-16.65ZM20.25-33.7L20.25 0 16.2 0 16.2-33.7 20.25-33.7Z" opacity="1" transform="matrix(1,0,0,1,0,0)" fill="#000000" class="undefined-text-0" data-fill-palette-color="primary" id="text-0"></path></svg></g></svg></g></svg></g></svg></g><g></g></svg></g></svg></g></svg></g><g mask="url(&quot;#7e7bede3-8ba8-404d-9cd5-3fd09e64b231&quot;)"><g transform="matrix(2.9879846944992803, 0, 0, 2.9879846944992803, 91.58196388096808, 1.0000000000000142)"><svg xmlns="http://www.w3.org/2000/svg" xmlns:xlink="http://www.w3.org/1999/xlink" version="1.1" x="0" y="0" viewBox="9.465 3.969 71.07 82.06200000000001" enable-background="new 0 0 90 90" xml:space="preserve" height="82.06200000000001" width="71.07" class="icon-none" data-fill-palette-color="accent" id="none"><polygon points="38.182,57.753 20.18,47.91 20.18,42.455 38.182,32.652 38.182,39.074 25.625,45.113 38.182,51.379 " fill="#000000" data-fill-palette-color="accent"></polygon><polygon points="39.848,62.08 46.351,27.918 50.136,27.918 43.56,62.08 " fill="#000000" data-fill-palette-color="accent"></polygon><polygon points="51.8,57.78 51.8,51.4 64.372,45.181 51.8,39.028 51.8,32.696 69.82,42.5 69.82,47.91 " fill="#000000" data-fill-palette-color="accent"></polygon><path d="M44.999 86.031L9.465 65.517V24.484L44.999 3.969l35.536 20.516v41.029L44.999 86.031 44.999 86.031zM13.07 63.434l31.929 18.434L76.93 63.434V26.566L44.999 8.131 13.07 26.565V63.434L13.07 63.434z" fill="#000000" data-fill-palette-color="accent"></path></svg></g></g><mask id="7e7bede3-8ba8-404d-9cd5-3fd09e64b231"><rect width="640" height="400" fill="white"></rect><g transform="matrix(1,0,0,1,107.51985257985257,37.08)"><svg viewBox="0 0 180.48029484029485 173.04" height="173.04" width="180.48029484029485"><g><svg viewBox="0 0 180.48029484029485 173.04" height="173.04" width="180.48029484029485"><g><svg viewBox="0 0 180.48029484029485 173.04" height="173.04" width="180.48029484029485"><g><svg viewBox="0 0 180.48029484029485 173.04" height="173.04" width="180.48029484029485"><g id="SvgjsG1005"><svg viewBox="0 0 180.48029484029485 173.04" height="173.04" width="180.48029484029485" id="SvgjsSvg1004"><g><svg viewBox="0 0 180.48029484029485 173.04" height="173.04" width="180.48029484029485"><g transform="matrix(1,0,0,1,0,0)"><svg width="180.48029484029485" viewBox="0.15000000000000036 -37.7 43.45 41.7" height="173.04" data-palette-color="#374151"><path d="M8.2-33.7L8.2 0 4.15 0 4.15-33.7 8.2-33.7ZM26.05-16.65L39.6 0 34.35 0 21.05-16.65 33.9-33.7 38.9-33.7 26.05-16.65ZM20.25-33.7L20.25 0 16.2 0 16.2-33.7 20.25-33.7Z" opacity="1" transform="matrix(1,0,0,1,0,0)" fill="#000000" class="undefined-text-0" data-fill-palette-color="primary" id="SvgjsPath1003" stroke-width="7" stroke="black" stroke-linejoin="round"></path></svg></g></svg></g></svg></g></svg></g><g></g></svg></g></svg></g></svg></g></mask></svg></g><defs></defs></svg><rect width="395.52" height="247.2" fill="none" stroke="none" visibility="hidden"></rect></g></svg></g></svg>